<mxfile host="app.diagrams.net" modified="2024-02-28T10:44:11.203Z" agent="Mozilla/5.0 (Macintosh; Intel Mac OS X 10_15_6) AppleWebKit/537.36 (KHTML, like Gecko) Chrome/108.0.5359.95 Safari/537.36" version="23.0.2" etag="eFhmAdvP3h_bnJplgVva" type="github">
  <diagram name="第 1 页" id="xEFOGvNU6p2dMKi8G9L9">
    <mxGraphModel>
      <root>
        <mxCell id="0" />
        <mxCell id="1" parent="0" />
      </root>
    </mxGraphModel>
  </diagram>
</mxfile>
